<?xml version="1.0" standalone="no"?>
<!DOCTYPE svg PUBLIC "-//W3C//DTD SVG 20010904//EN"
 "http://www.w3.org/TR/2001/REC-SVG-20010904/DTD/svg10.dtd">
<svg version="1.0" xmlns="http://www.w3.org/2000/svg"
 width="3840.000000pt" height="2160.000000pt" viewBox="0 0 3840.000000 2160.000000"
 preserveAspectRatio="xMidYMid meet">

<g transform="translate(0.000000,2160.000000) scale(0.100000,-0.100000)"
fill="#000000" stroke="none">
<path d="M2302 16170 c-58 -12 -211 -81 -319 -142 -534 -304 -1029 -833 -1347
-1440 -123 -235 -236 -529 -300 -783 -139 -551 -50 -1046 258 -1438 208 -265
517 -474 769 -517 121 -21 177 20 177 129 0 61 -15 93 -125 271 -133 214 -203
432 -235 722 -13 124 -13 415 0 549 71 711 371 1415 790 1853 101 106 162 156
190 156 42 0 42 -3 41 -1148 -1 -602 -4 -1151 -6 -1220 -2 -70 -7 -845 -10
-1722 -3 -877 -10 -1703 -16 -1835 -21 -529 -59 -773 -184 -1185 -31 -102 -59
-215 -62 -251 -5 -62 -4 -67 24 -98 25 -29 34 -33 80 -33 69 1 123 16 214 62
499 249 830 788 939 1530 44 300 55 656 61 1990 6 1324 3 4002 -4 4103 -8 104
-26 145 -94 208 -95 89 -256 168 -442 216 -106 27 -320 40 -399 23z"/>
<path d="M12711 16170 c-63 -15 -121 -76 -141 -149 -22 -85 -46 -509 -55
-1016 -4 -165 -8 -309 -10 -320 -5 -23 13 -23 -537 0 -190 8 -382 15 -427 15
-79 0 -81 -1 -117 -37 -78 -78 -152 -290 -161 -463 -6 -121 5 -177 45 -220 34
-36 41 -37 462 -46 184 -4 342 -8 350 -10 8 -1 86 -3 173 -3 l157 -1 -5 -627
c-3 -346 -7 -882 -10 -1193 -4 -559 -5 -566 -29 -665 -87 -354 -262 -705 -493
-995 -73 -92 -259 -287 -266 -280 -3 3 1 39 9 80 7 41 13 135 14 208 1 365
-140 666 -457 973 -127 124 -288 251 -805 638 l-326 244 60 71 c76 91 190 262
263 395 197 357 249 625 159 806 -74 147 -211 208 -469 208 -118 0 -155 -4
-236 -26 -164 -43 -320 -132 -451 -255 -300 -283 -439 -733 -328 -1064 38
-113 81 -192 166 -305 l65 -86 -47 -91 c-222 -431 -658 -1200 -883 -1556 -173
-274 -339 -468 -443 -518 -164 -80 -237 45 -269 458 -19 253 -6 1260 26 2025
30 720 30 733 -28 847 -37 74 -125 165 -222 230 -114 75 -283 165 -395 211
l-105 42 -135 0 c-128 -1 -140 -2 -235 -36 -55 -19 -131 -53 -170 -76 -412
-244 -771 -821 -1108 -1783 -94 -268 -206 -570 -218 -589 -7 -11 -8 110 -5
404 3 231 7 733 7 1115 2 779 6 735 -70 786 -59 38 -252 113 -381 147 -96 24
-136 30 -242 31 -114 1 -129 -1 -155 -20 -64 -47 -61 -26 -68 -619 -4 -297 -8
-1210 -9 -2030 -1 -1553 -1 -1575 41 -1730 25 -94 77 -199 124 -250 94 -101
184 -127 449 -129 196 -1 265 12 321 62 33 30 28 3 74 347 36 261 131 672 264
1135 285 994 670 1795 1102 2294 105 122 138 148 166 130 22 -14 22 -54 -12
-849 -13 -319 -29 -708 -36 -864 -15 -360 -6 -1043 15 -1228 52 -452 145 -723
300 -879 187 -187 499 -202 793 -37 269 151 575 466 852 878 99 147 333 534
865 1428 l207 348 112 -102 c490 -448 604 -564 722 -739 133 -198 196 -383
198 -580 5 -466 -302 -732 -682 -591 -104 38 -193 90 -331 191 -168 124 -213
151 -266 159 -76 11 -130 -4 -192 -51 -116 -90 -219 -238 -279 -404 -81 -224
-29 -320 246 -458 172 -87 419 -153 709 -190 141 -18 430 -21 567 -6 783 88
1389 573 1834 1469 37 75 83 171 101 214 19 42 37 74 40 70 4 -5 12 -59 19
-121 80 -757 346 -1297 744 -1512 186 -101 431 -143 609 -105 167 35 326 132
499 304 219 218 397 496 528 827 l39 98 21 -74 c99 -345 256 -634 446 -824
270 -271 622 -388 995 -331 148 22 263 60 415 135 296 147 521 364 722 698 58
96 63 101 68 75 67 -337 187 -548 407 -713 279 -210 619 -260 938 -138 232 89
465 327 605 616 21 45 42 82 45 82 3 0 18 -26 34 -57 95 -195 291 -419 466
-532 347 -224 784 -239 1195 -41 237 114 453 298 613 523 l57 79 6 -118 c4
-66 7 -171 8 -235 l1 -115 -397 -365 c-666 -611 -900 -839 -1102 -1074 -356
-414 -518 -750 -534 -1105 -27 -603 336 -1033 988 -1170 128 -27 350 -37 468
-21 332 45 631 201 882 462 199 207 306 390 403 689 103 317 170 683 202 1095
11 133 15 995 5 1043 -2 12 -5 164 -6 337 l-1 314 74 88 c408 484 778 1027
1077 1578 241 444 508 1036 621 1380 18 55 37 105 41 111 6 7 86 12 236 13
125 1 230 4 233 6 12 7 245 8 267 1 36 -11 36 -42 3 -180 -135 -568 -206
-1238 -181 -1707 24 -457 92 -761 231 -1040 217 -435 634 -722 1050 -722 221
0 405 73 608 242 110 92 255 282 323 424 13 26 25 47 28 47 4 0 24 -33 46 -72
128 -228 329 -425 543 -532 134 -68 343 -116 501 -116 178 0 424 61 597 148
180 91 357 228 488 377 84 97 196 257 255 366 39 71 40 72 46 43 71 -309 165
-488 339 -651 206 -193 482 -297 744 -280 126 9 209 30 317 82 194 93 350 270
488 552 60 123 67 123 67 6 0 -96 20 -310 35 -387 18 -86 36 -106 140 -157
150 -74 332 -105 550 -95 160 7 272 26 319 55 40 25 71 80 85 151 6 30 15 208
21 395 18 585 38 884 80 1155 52 343 205 879 371 1300 48 123 213 449 249 493
34 40 73 49 85 20 3 -10 11 -146 16 -303 28 -898 114 -1785 215 -2240 59 -264
119 -387 248 -507 125 -118 252 -158 469 -151 90 4 149 11 184 23 55 19 125
71 145 108 7 14 13 84 14 187 7 427 92 1003 234 1585 74 304 172 606 310 950
117 293 175 420 195 423 17 4 17 -9 10 -226 -11 -339 -8 -1054 5 -1312 30
-609 88 -989 196 -1277 159 -425 438 -703 804 -801 129 -34 334 -36 453 -4
381 104 642 479 767 1102 58 291 63 437 19 540 -69 160 -233 140 -299 -37 -11
-29 -42 -144 -69 -255 -86 -354 -157 -529 -256 -636 -69 -74 -130 -103 -221
-103 -119 0 -213 76 -298 241 -103 200 -158 453 -188 865 -18 257 -17 1387 2
1840 8 193 15 427 15 520 0 165 -1 172 -28 226 -39 80 -96 140 -194 205 -145
97 -445 217 -612 244 -178 29 -321 -29 -410 -169 -40 -61 -100 -207 -216 -516
-251 -674 -442 -1365 -521 -1882 -15 -103 -27 -134 -39 -100 -7 19 -43 431
-60 677 -17 259 -31 662 -40 1100 -8 397 -21 458 -125 596 -165 220 -671 374
-884 270 -44 -22 -68 -43 -102 -89 -140 -190 -242 -441 -530 -1301 -101 -302
-186 -551 -189 -554 -3 -3 -5 375 -5 841 1 941 5 885 -67 959 -21 21 -56 44
-82 52 -119 39 -380 97 -519 116 -152 21 -246 -19 -270 -116 -13 -51 -22 -578
-38 -2279 l-6 -660 -29 -115 c-93 -382 -272 -749 -440 -904 -82 -76 -151 -108
-233 -107 -111 1 -168 24 -233 94 -134 145 -199 452 -223 1040 -8 201 -5 1049
5 1307 9 261 15 438 21 700 4 146 9 351 13 456 3 106 3 208 0 228 -18 109
-195 208 -474 265 -228 46 -364 37 -440 -31 -58 -50 -68 -80 -74 -207 l-6
-113 -34 48 c-54 76 -188 211 -274 275 -206 154 -389 213 -662 213 -148 0
-210 -9 -340 -51 -360 -115 -667 -431 -914 -943 -204 -422 -314 -960 -328
-1600 -7 -298 6 -519 45 -770 35 -230 34 -270 -11 -402 -84 -249 -190 -399
-332 -470 -65 -33 -97 -40 -173 -39 -158 1 -302 134 -397 370 -103 254 -153
636 -142 1081 12 439 47 673 210 1395 79 352 81 363 82 495 l0 135 -37 78
c-119 248 -354 324 -747 240 -299 -63 -802 -153 -856 -153 -22 0 -22 1 -9 68
21 102 28 269 15 335 -17 92 -57 170 -115 226 -93 87 -189 121 -344 121 -218
0 -392 -77 -515 -228 -70 -85 -118 -175 -150 -277 -73 -233 -59 -446 40 -614
38 -65 133 -171 187 -208 l29 -20 -27 -109 c-115 -463 -359 -1069 -616 -1530
-186 -333 -472 -780 -491 -768 -7 4 -8 336 -5 957 6 1084 12 1478 32 2053 6
174 6 184 -15 227 -15 30 -38 56 -67 76 -110 73 -332 140 -534 162 -101 10
-123 10 -179 -5 -82 -21 -126 -48 -159 -99 -25 -37 -27 -52 -32 -160 l-5 -120
-40 59 c-22 33 -81 100 -130 150 -200 200 -401 301 -665 334 -305 37 -594 -47
-850 -249 -424 -335 -759 -1081 -844 -1881 -49 -455 -47 -866 4 -1231 l21
-146 -21 -84 c-79 -310 -250 -580 -415 -655 -95 -44 -218 -33 -308 27 -145 96
-229 333 -273 768 -17 177 -30 541 -28 801 4 492 8 766 15 965 11 355 33 1135
33 1196 0 69 -23 111 -90 162 -96 73 -315 143 -523 167 -172 20 -252 1 -324
-79 -45 -50 -51 -72 -51 -193 0 -54 -2 -98 -6 -98 -3 0 -25 27 -49 59 -52 72
-185 206 -261 262 -137 103 -271 163 -430 193 -310 59 -598 2 -856 -170 -343
-227 -668 -742 -809 -1276 -93 -355 -151 -765 -161 -1148 -6 -238 -22 -334
-90 -540 -56 -167 -178 -419 -275 -565 -105 -157 -266 -318 -373 -370 -99 -49
-181 -58 -242 -27 -111 57 -210 238 -263 487 -65 300 -75 480 -67 1240 4 347
8 644 11 660 2 17 6 156 10 310 8 409 51 1516 58 1521 6 4 550 14 812 16 171
0 351 4 402 7 84 6 94 8 123 36 41 38 103 170 125 261 21 91 22 217 2 266 -9
20 -28 43 -44 51 -49 26 -301 48 -765 67 -296 12 -626 35 -634 43 -6 6 2 231
32 901 16 370 17 360 -40 408 -53 45 -267 128 -445 173 -230 57 -360 74 -440
55z m4153 -3179 c82 -29 133 -60 195 -122 172 -169 274 -467 312 -908 15 -176
6 -719 -15 -906 -81 -720 -296 -1222 -610 -1429 -376 -248 -712 17 -851 669
-130 612 -70 1598 130 2115 127 330 316 538 541 595 79 20 220 13 298 -14z
m4461 19 c189 -27 342 -170 430 -405 104 -275 145 -730 115 -1275 -25 -457
-118 -900 -257 -1224 -99 -233 -266 -434 -428 -516 -371 -186 -672 90 -799
730 -47 235 -60 391 -60 710 0 1073 296 1832 764 1964 95 26 139 29 235 16z
m7909 -19 c229 -81 387 -328 461 -721 63 -341 72 -913 19 -1317 -81 -625 -292
-1108 -570 -1309 -390 -280 -748 -14 -878 653 -121 619 -64 1605 120 2102 156
418 398 632 699 617 55 -3 113 -13 149 -25z m-7247 -4938 c-8 -536 -22 -749
-68 -1063 -75 -507 -207 -834 -393 -974 -248 -186 -570 -180 -751 16 -97 105
-140 227 -139 398 1 406 264 892 808 1495 154 171 527 555 539 555 7 0 8 -126
4 -427z"/>
</g>
</svg>
